#Comment line ignore any data following # character 
#Hierarchical Translation and Rotation (.htr) file 
[Header]	
#Header keywords are followed by a single value 
FileType HTR		#Single word string
DataType HTRS		#Translation followed by rotation and scale data
FileVersion 1		#integer
NumSegments 84		#integer
NumFrames 2		#integer
DataFrameRate 30		#integer, data frame rate in this file
EulerRotationOrder ZYX
CalibrationUnits mm
RotationUnits Degrees
GlobalAxisofGravity Y
BoneLengthAxis Y
ScaleFactor 1.00
[SegmentNames&Hierarchy]
#CHILD	PARENT
MASTER GLOBAL
root MASTER
chest root
L_mid_tent01 root
R_mid_tent01 root
spine01 root
Bip01_Neck chest
L_humerus chest
R_humerus chest
weapon_bone chest
Bip01_Head Bip01_Neck
eye_left_bone Bip01_Head
eye_right_bone Bip01_Head
L_forearm L_humerus
L_front_hand L_forearm
L_weapon_bone L_forearm
L_front_hand01_01 L_front_hand
L_front_hand02_01 L_front_hand
L_front_hand03_01 L_front_hand
L_front_hand01_02 L_front_hand01_01
L_front_hand02_02 L_front_hand02_01
L_front_hand03_02 L_front_hand03_01
R_forearm R_humerus
R_front_hand R_forearm
R_weapon_bone R_forearm
R_front_hand01_01 R_front_hand
R_front_hand02_01 R_front_hand
R_front_hand03_01 R_front_hand
R_front_hand01_02 R_front_hand01_01
R_front_hand02_02 R_front_hand02_01
R_front_hand03_02 R_front_hand03_01
null_rope01_connect L_mid_tent01
Rope1_Seg01 null_rope01_connect
Rope1_Seg02 Rope1_Seg01
Rope1_Seg03 Rope1_Seg02
Rope1_Seg04 Rope1_Seg03
Rope1_Seg05 Rope1_Seg04
Rope1_Seg06 Rope1_Seg05
Rope1_Seg07 Rope1_Seg06
Rope1_Seg09 Rope1_Seg07
L_mid_hand01 Rope1_Seg09
L_mid_hand02 Rope1_Seg09
L_mid_hand03 Rope1_Seg09
null_rope02_connect R_mid_tent01
Rope2_Seg01 null_rope02_connect
Rope2_Seg02 Rope2_Seg01
Rope2_Seg03 Rope2_Seg02
Rope2_Seg04 Rope2_Seg03
Rope2_Seg05 Rope2_Seg04
Rope2_Seg06 Rope2_Seg05
Rope2_Seg07 Rope2_Seg06
Rope2_Seg09 Rope2_Seg07
R_mid_hand01 Rope2_Seg09
R_mid_hand02 Rope2_Seg09
R_mid_hand03 Rope2_Seg09
spine02 spine01
spine03 spine02
pelvis spine03
null_rope03_connect pelvis
null_rope04_connect pelvis
Rope3_Seg01 null_rope03_connect
Rope3_Seg02 Rope3_Seg01
Rope3_Seg03 Rope3_Seg02
Rope3_Seg04 Rope3_Seg03
Rope3_Seg05 Rope3_Seg04
Rope3_Seg06 Rope3_Seg05
Rope3_Seg07 Rope3_Seg06
Rope3_Seg08 Rope3_Seg07
Rope3_Seg09 Rope3_Seg08
R_rear_hand01 Rope3_Seg09
R_rear_hand02 Rope3_Seg09
R_rear_hand03 Rope3_Seg09
Rope4_Seg01 null_rope04_connect
Rope4_Seg02 Rope4_Seg01
Rope4_Seg03 Rope4_Seg02
Rope4_Seg04 Rope4_Seg03
Rope4_Seg05 Rope4_Seg04
Rope4_Seg06 Rope4_Seg05
Rope4_Seg07 Rope4_Seg06
Rope4_Seg08 Rope4_Seg07
Rope4_Seg09 Rope4_Seg08
L_rear_hand01 Rope4_Seg09
L_rear_hand02 Rope4_Seg09
L_rear_hand03 Rope4_Seg09
[BasePosition]
#SegmentName Tx, Ty, Tz, Rx, Ry, Rz, BoneLength
MASTER 0.000000 0.000000 0.000000 -90.000000 0.000000 0.000000 10.000000 
root 0.000000 0.000000 0.000000 0.000000 0.000000 0.000000 10.000000 
chest 0.000000 0.000000 0.000000 0.000000 0.000000 0.000000 10.000000 
L_mid_tent01 0.000000 0.000000 0.000000 0.000000 0.000000 0.000000 10.000000 
R_mid_tent01 0.000000 0.000000 0.000000 0.000000 0.000000 0.000000 10.000000 
spine01 0.000000 0.000000 0.000000 0.000000 0.000000 0.000000 10.000000 
Bip01_Neck 0.000000 0.000000 0.000000 0.000000 0.000000 0.000000 10.000000 
L_humerus 0.000000 0.000000 0.000000 0.000000 0.000000 0.000000 10.000000 
R_humerus 0.000000 0.000000 0.000000 0.000000 0.000000 0.000000 10.000000 
weapon_bone 0.000000 0.000000 0.000000 0.000000 0.000000 0.000000 10.000000 
Bip01_Head 0.000000 0.000000 0.000000 0.000000 0.000000 0.000000 10.000000 
eye_left_bone 0.000000 0.000000 0.000000 0.000000 0.000000 0.000000 10.000000 
eye_right_bone 0.000000 0.000000 0.000000 0.000000 0.000000 0.000000 10.000000 
L_forearm 0.000000 0.000000 0.000000 0.000000 0.000000 0.000000 10.000000 
L_front_hand 0.000000 0.000000 0.000000 0.000000 0.000000 0.000000 10.000000 
L_weapon_bone 0.000000 0.000000 0.000000 0.000000 0.000000 0.000000 10.000000 
L_front_hand01_01 0.000000 0.000000 0.000000 0.000000 0.000000 0.000000 10.000000 
L_front_hand02_01 0.000000 0.000000 0.000000 0.000000 0.000000 0.000000 10.000000 
L_front_hand03_01 0.000000 0.000000 0.000000 0.000000 0.000000 0.000000 10.000000 
L_front_hand01_02 0.000000 0.000000 0.000000 0.000000 0.000000 0.000000 10.000000 
L_front_hand02_02 0.000000 0.000000 0.000000 0.000000 0.000000 0.000000 10.000000 
L_front_hand03_02 0.000000 0.000000 0.000000 0.000000 0.000000 0.000000 10.000000 
R_forearm 0.000000 0.000000 0.000000 0.000000 0.000000 0.000000 10.000000 
R_front_hand 0.000000 0.000000 0.000000 0.000000 0.000000 0.000000 10.000000 
R_weapon_bone 0.000000 0.000000 0.000000 0.000000 0.000000 0.000000 10.000000 
R_front_hand01_01 0.000000 0.000000 0.000000 0.000000 0.000000 0.000000 10.000000 
R_front_hand02_01 0.000000 0.000000 0.000000 0.000000 0.000000 0.000000 10.000000 
R_front_hand03_01 0.000000 0.000000 0.000000 0.000000 0.000000 0.000000 10.000000 
R_front_hand01_02 0.000000 0.000000 0.000000 0.000000 0.000000 0.000000 10.000000 
R_front_hand02_02 0.000000 0.000000 0.000000 0.000000 0.000000 0.000000 10.000000 
R_front_hand03_02 0.000000 0.000000 0.000000 0.000000 0.000000 0.000000 10.000000 
null_rope01_connect 0.000000 0.000000 0.000000 0.000000 0.000000 0.000000 10.000000 
Rope1_Seg01 0.000000 0.000000 0.000000 0.000000 0.000000 0.000000 10.000000 
Rope1_Seg02 0.000000 0.000000 0.000000 0.000000 0.000000 0.000000 10.000000 
Rope1_Seg03 0.000000 0.000000 0.000000 0.000000 0.000000 0.000000 10.000000 
Rope1_Seg04 0.000000 0.000000 0.000000 0.000000 0.000000 0.000000 10.000000 
Rope1_Seg05 0.000000 0.000000 0.000000 0.000000 0.000000 0.000000 10.000000 
Rope1_Seg06 0.000000 0.000000 0.000000 0.000000 0.000000 0.000000 10.000000 
Rope1_Seg07 0.000000 0.000000 0.000000 0.000000 0.000000 0.000000 10.000000 
Rope1_Seg09 0.000000 0.000000 0.000000 0.000000 0.000000 0.000000 10.000000 
L_mid_hand01 0.000000 0.000000 0.000000 0.000000 0.000000 0.000000 10.000000 
L_mid_hand02 0.000000 0.000000 0.000000 0.000000 0.000000 0.000000 10.000000 
L_mid_hand03 0.000000 0.000000 0.000000 0.000000 0.000000 0.000000 10.000000 
null_rope02_connect 0.000000 0.000000 0.000000 0.000000 0.000000 0.000000 10.000000 
Rope2_Seg01 0.000000 0.000000 0.000000 0.000000 0.000000 0.000000 10.000000 
Rope2_Seg02 0.000000 0.000000 0.000000 0.000000 0.000000 0.000000 10.000000 
Rope2_Seg03 0.000000 0.000000 0.000000 0.000000 0.000000 0.000000 10.000000 
Rope2_Seg04 0.000000 0.000000 0.000000 0.000000 0.000000 0.000000 10.000000 
Rope2_Seg05 0.000000 0.000000 0.000000 0.000000 0.000000 0.000000 10.000000 
Rope2_Seg06 0.000000 0.000000 0.000000 0.000000 0.000000 0.000000 10.000000 
Rope2_Seg07 0.000000 0.000000 0.000000 0.000000 0.000000 0.000000 10.000000 
Rope2_Seg09 0.000000 0.000000 0.000000 0.000000 0.000000 0.000000 10.000000 
R_mid_hand01 0.000000 0.000000 0.000000 0.000000 0.000000 0.000000 10.000000 
R_mid_hand02 0.000000 0.000000 0.000000 0.000000 0.000000 0.000000 10.000000 
R_mid_hand03 0.000000 0.000000 0.000000 0.000000 0.000000 0.000000 10.000000 
spine02 0.000000 0.000000 0.000000 0.000000 0.000000 0.000000 10.000000 
spine03 0.000000 0.000000 0.000000 0.000000 0.000000 0.000000 10.000000 
pelvis 0.000000 0.000000 0.000000 0.000000 0.000000 0.000000 10.000000 
null_rope03_connect 0.000000 0.000000 0.000000 0.000000 0.000000 0.000000 10.000000 
null_rope04_connect 0.000000 0.000000 0.000000 0.000000 0.000000 0.000000 10.000000 
Rope3_Seg01 0.000000 0.000000 0.000000 0.000000 0.000000 0.000000 10.000000 
Rope3_Seg02 0.000000 0.000000 0.000000 0.000000 0.000000 0.000000 10.000000 
Rope3_Seg03 0.000000 0.000000 0.000000 0.000000 0.000000 0.000000 10.000000 
Rope3_Seg04 0.000000 0.000000 0.000000 0.000000 0.000000 0.000000 10.000000 
Rope3_Seg05 0.000000 0.000000 0.000000 0.000000 0.000000 0.000000 10.000000 
Rope3_Seg06 0.000000 0.000000 0.000000 0.000000 0.000000 0.000000 10.000000 
Rope3_Seg07 0.000000 0.000000 0.000000 0.000000 0.000000 0.000000 10.000000 
Rope3_Seg08 0.000000 0.000000 0.000000 0.000000 0.000000 0.000000 10.000000 
Rope3_Seg09 0.000000 0.000000 0.000000 0.000000 0.000000 0.000000 10.000000 
R_rear_hand01 0.000000 0.000000 0.000000 0.000000 0.000000 0.000000 10.000000 
R_rear_hand02 0.000000 0.000000 0.000000 0.000000 0.000000 0.000000 10.000000 
R_rear_hand03 0.000000 0.000000 0.000000 0.000000 0.000000 0.000000 10.000000 
Rope4_Seg01 0.000000 0.000000 0.000000 0.000000 0.000000 0.000000 10.000000 
Rope4_Seg02 0.000000 0.000000 0.000000 0.000000 0.000000 0.000000 10.000000 
Rope4_Seg03 0.000000 0.000000 0.000000 0.000000 0.000000 0.000000 10.000000 
Rope4_Seg04 0.000000 0.000000 0.000000 0.000000 0.000000 0.000000 10.000000 
Rope4_Seg05 0.000000 0.000000 0.000000 0.000000 0.000000 0.000000 10.000000 
Rope4_Seg06 0.000000 0.000000 0.000000 0.000000 0.000000 0.000000 10.000000 
Rope4_Seg07 0.000000 0.000000 0.000000 0.000000 0.000000 0.000000 10.000000 
Rope4_Seg08 0.000000 0.000000 0.000000 0.000000 0.000000 0.000000 10.000000 
Rope4_Seg09 0.000000 0.000000 0.000000 0.000000 0.000000 0.000000 10.000000 
L_rear_hand01 0.000000 0.000000 0.000000 0.000000 0.000000 0.000000 10.000000 
L_rear_hand02 0.000000 0.000000 0.000000 0.000000 0.000000 0.000000 10.000000 
L_rear_hand03 0.000000 0.000000 0.000000 0.000000 0.000000 0.000000 10.000000 
#Beginning of Data. Separated by tabs
#Fr	Tx	Ty	Tz	Rx	Ry	Rz	SF
[MASTER]
27 2262.379150 4423.861816 937.861572 0.001660 0.001660 0.001660 5056.530273
28 2468.084473 4611.598145 662.461670 0.001660 0.001660 0.001660 5272.298828
[root]
27 -10.826721 -111.166687 940.651611 -123.153725 -12.778454 -77.400154 947.259583
28 -4.712219 -85.671997 1004.091614 -113.217247 -14.867654 -76.987793 1007.750854
[chest]
27 -84.512650 -34.090519 0.000000 -45.720535 -33.475605 -170.811798 91.129311
28 -84.512650 -34.090519 0.000000 -34.559223 -35.173565 -171.940979 91.129311
[L_mid_tent01]
27 27.298800 22.179258 -249.918701 -18.227087 18.666355 -40.395927 252.381668
28 27.298788 22.179258 -249.918701 -17.245131 15.573057 -51.150616 252.381668
[R_mid_tent01]
27 23.228794 24.509907 226.238495 164.088364 3.142410 75.547821 228.744751
28 23.228794 24.509907 226.238495 163.875336 -1.687255 77.014168 228.744751
[spine01]
27 -0.361383 -0.195265 0.000000 0.001954 0.001301 22.671104 0.410763
28 -0.361383 -0.195265 0.000000 0.001953 0.001302 22.636631 0.410763
[Bip01_Neck]
27 165.484543 71.581718 0.000119 176.643677 -1.657967 43.431911 180.302734
28 165.484543 71.581718 0.000119 176.643677 -1.657967 43.431911 180.302734
[L_humerus]
27 -13.983130 -135.272980 -120.471481 174.070251 -5.559574 -92.125786 181.680161
28 -13.983130 -135.272980 -120.471481 173.991898 -5.290767 -92.116890 181.680161
[R_humerus]
27 -13.983309 -135.273102 125.287651 -176.985825 8.339660 -85.103874 184.909012
28 -13.983309 -135.273102 125.287651 -176.986282 8.111733 -85.115067 184.909012
[weapon_bone]
27 235.964890 -300.705902 0.000000 0.000000 -89.951546 -128.212341 382.234833
28 235.964890 -300.705902 0.000000 0.000000 -89.951546 -128.212341 382.234833
[Bip01_Head]
27 213.376755 185.904007 9.345455 18.223381 6.152122 -43.833611 283.155914
28 213.383026 185.886581 9.570035 18.223381 6.152122 -43.833611 283.156677
[eye_left_bone]
27 -24.626970 125.451866 -64.772606 0.000000 -90.000000 -99.840431 143.318359
28 -24.626970 125.451866 -64.772606 0.000000 -90.000000 -99.840431 143.318359
[eye_right_bone]
27 -24.626970 125.451866 64.327362 0.000000 -89.965736 80.156380 143.117676
28 -24.626970 125.451866 64.327362 0.000000 -89.965736 80.156380 143.117676
[L_forearm]
27 322.776093 0.000000 -0.000119 0.000422 -0.002309 -110.722214 322.776093
28 322.776093 0.000000 -0.000119 0.000421 -0.002309 -110.640442 322.776093
[L_front_hand]
27 241.149185 -0.042021 -3.300071 -178.667953 -1.835447 -27.422350 241.171753
28 241.149185 -0.042021 -3.300071 -178.667953 -1.835447 -27.422350 241.171753
[L_weapon_bone]
27 156.183838 0.000000 0.000000 0.000014 0.000007 0.000001 156.183838
28 156.183838 0.000000 0.000000 0.000014 0.000007 0.000001 156.183838
[L_front_hand01_01]
27 86.095154 20.947098 -0.655860 -0.366594 -0.477154 75.385574 88.609184
28 86.095154 20.947098 -0.655860 -0.366594 -0.477154 75.385574 88.609184
[L_front_hand02_01]
27 86.935165 -11.437475 24.513514 154.399811 -59.883846 -61.369606 91.046425
28 86.935165 -11.437475 24.513514 154.399796 -59.883835 -61.369587 91.046425
[L_front_hand03_01]
27 86.637497 -14.123976 -20.424902 -153.913849 58.118122 -62.702866 90.126129
28 86.637497 -14.123976 -20.424902 -153.913849 58.118122 -62.702866 90.126129
[L_front_hand01_02]
27 71.020905 -0.000179 0.000030 0.000334 -0.002323 -106.368011 71.020905
28 71.020905 -0.000179 0.000030 0.000334 -0.002323 -106.368706 71.020905
[L_front_hand02_02]
27 71.020927 -0.000119 0.000060 0.000334 -0.002323 -106.368011 71.020927
28 71.020927 -0.000119 0.000060 0.000334 -0.002323 -106.368706 71.020927
[L_front_hand03_02]
27 71.020905 -0.000060 0.000060 0.000334 -0.002323 -106.368011 71.020905
28 71.020905 -0.000060 0.000060 0.000334 -0.002323 -106.368706 71.020905
[R_forearm]
27 322.776428 -0.000060 0.000030 0.201335 0.067493 -109.389412 322.776428
28 322.776428 -0.000060 0.000030 0.201387 0.067340 -109.302528 322.776428
[R_front_hand]
27 238.847015 -0.006795 2.210259 -2.635298 -10.645461 -26.312506 238.857239
28 238.847015 -0.006795 2.210259 -2.635298 -10.645461 -26.312506 238.857239
[R_weapon_bone]
27 155.664093 0.002503 -0.000030 0.003487 0.001180 -90.988930 155.664078
28 155.664093 0.002503 -0.000030 0.003487 0.001180 -90.988930 155.664078
[R_front_hand01_01]
27 87.624611 14.231146 22.918642 -154.633499 -59.950619 61.746044 91.683487
28 87.624611 14.231146 22.918642 -154.633484 -59.950619 61.746037 91.683487
[R_front_hand02_01]
27 89.356956 14.367283 -19.491137 154.602661 58.302849 63.744389 92.579636
28 89.356956 14.367283 -19.491137 154.602676 58.302856 63.744400 92.579636
[R_front_hand03_01]
27 87.286232 -22.307278 -0.143439 0.162155 -0.423168 -75.767921 90.091743
28 87.286232 -22.307278 -0.143439 0.162155 -0.423168 -75.767906 90.091743
[R_front_hand01_02]
27 71.020905 0.000060 0.000119 0.002323 -0.000334 106.381714 71.020905
28 71.020905 0.000060 0.000119 0.002323 -0.000334 106.381714 71.020905
[R_front_hand02_02]
27 71.020844 -0.000030 -0.000119 0.002323 -0.000334 106.381714 71.020836
28 71.020844 -0.000030 -0.000119 0.002323 -0.000334 106.381714 71.020836
[R_front_hand03_02]
27 71.020905 0.000000 0.000030 0.002323 -0.000334 106.381714 71.020905
28 71.020905 0.000000 0.000030 0.002323 -0.000334 106.381714 71.020905
[null_rope01_connect]
27 328.732483 0.000000 -0.000238 -138.647324 -56.199875 -70.416969 328.732483
28 328.732483 0.000000 -0.000238 -131.933990 -69.148491 -67.997208 328.732483
[Rope1_Seg01]
27 0.000000 0.000000 0.000000 -71.266441 -55.655735 -160.770493 0.000000
28 0.000000 0.000000 0.000000 -84.268196 -73.259087 -160.638199 0.000000
[Rope1_Seg02]
27 139.999863 -0.000179 0.000000 -21.548004 -20.415874 -31.249317 139.999863
28 139.999863 -0.000179 0.000000 -6.800268 -1.587901 -17.343018 139.999863
[Rope1_Seg03]
27 139.999924 0.000060 -0.000060 -6.433336 -4.694880 -39.214962 139.999924
28 139.999924 0.000060 -0.000060 -4.240571 0.864164 -32.622990 139.999924
[Rope1_Seg04]
27 139.999924 -0.000060 -0.000119 7.064537 -19.520901 -30.548540 139.999924
28 139.999924 -0.000060 -0.000119 4.360869 2.759529 -31.044054 139.999924
[Rope1_Seg05]
27 139.999832 0.000119 -0.000060 5.033537 -12.087252 -17.317879 139.999832
28 139.999832 0.000119 -0.000060 4.453710 0.473440 -11.327787 139.999832
[Rope1_Seg06]
27 139.999954 0.000119 -0.000060 2.120437 -5.314532 -7.162579 139.999954
28 139.999954 0.000119 -0.000060 2.894346 0.283990 -5.876068 139.999954
[Rope1_Seg07]
27 139.999985 0.000060 0.000000 0.571556 -1.532076 -1.925195 139.999985
28 139.999985 0.000060 0.000000 3.982748 -0.341763 -6.080160 139.999985
[Rope1_Seg09]
27 121.602913 0.000119 -0.000089 -89.793175 -1.359789 0.847147 121.602913
28 121.602913 0.000119 -0.000089 -89.793175 -1.359789 0.847147 121.602913
[L_mid_hand01]
27 103.859421 1.038730 8.195221 130.544357 -67.584518 -38.866943 104.187431
28 103.859421 1.038730 8.195221 130.544373 -67.584534 -38.866947 104.187431
[L_mid_hand02]
27 105.572853 -4.139662 -10.864139 -168.923172 43.409309 -73.498894 106.211075
28 105.572853 -4.139662 -10.864139 -168.923172 43.409321 -73.498909 106.211075
[L_mid_hand03]
27 104.641464 17.579376 -3.913581 -6.012625 17.808174 74.893661 106.179977
28 104.641464 17.579376 -3.913581 -6.012627 17.808174 74.893669 106.179977
[null_rope02_connect]
27 328.732849 0.000179 -0.000119 -21.809502 44.209324 130.995499 328.732849
28 328.732849 0.000179 -0.000119 -37.091228 54.081974 114.852791 328.732849
[Rope2_Seg01]
27 0.000060 0.000066 0.000000 148.226059 77.164024 85.764252 0.000089
28 0.000061 0.000063 0.000000 -170.158493 66.345062 126.163048 0.000087
[Rope2_Seg02]
27 139.999741 -0.000060 -0.000119 0.986934 -1.642975 -1.442034 139.999756
28 139.999741 -0.000060 -0.000119 -6.177258 0.665126 7.867060 139.999756
[Rope2_Seg03]
27 140.000107 0.000030 0.000000 2.400981 -2.478253 -4.266869 140.000107
28 140.000107 0.000030 0.000000 -8.590769 -0.756341 14.054882 140.000107
[Rope2_Seg04]
27 139.999802 0.000000 -0.000060 -24.063961 -60.050915 38.954128 139.999802
28 139.999802 0.000000 -0.000060 -9.609423 -4.215617 24.721092 139.999802
[Rope2_Seg05]
27 139.999985 -0.000060 0.000119 145.007629 -54.697216 46.598091 139.999985
28 139.999985 -0.000060 0.000119 -4.490821 -4.633556 36.858208 139.999985
[Rope2_Seg06]
27 139.999893 -0.000030 -0.000119 0.287237 0.734132 -0.199280 139.999893
28 139.999893 -0.000030 -0.000119 3.163836 -4.662959 23.030655 139.999893
[Rope2_Seg07]
27 139.999893 0.000060 -0.000060 -0.052743 0.001660 0.001659 139.999893
28 139.999893 0.000060 -0.000060 2.387836 -1.076970 7.732097 139.999893
[Rope2_Seg09]
27 121.338966 0.000089 -0.000060 33.793236 -1.359788 -0.847141 121.338966
28 121.338966 0.000089 -0.000060 33.793236 -1.359788 -0.847141 121.338966
[R_mid_hand01]
27 104.680779 11.144459 -10.335981 -16.212063 45.237247 70.462852 105.778534
28 104.680779 11.144459 -10.335981 -16.212059 45.237240 70.462852 105.778534
[R_mid_hand02]
27 104.070427 2.443552 8.231699 49.067368 -67.749771 39.286453 104.424065
28 104.070427 2.443552 8.231699 49.067368 -67.749771 39.286453 104.424065
[R_mid_hand03]
27 106.028137 -11.221827 -5.996406 -177.101105 15.551026 -76.585571 106.788818
28 106.028137 -11.221827 -5.996406 -177.101105 15.551024 -76.585571 106.788818
[spine02]
27 129.756927 0.001550 0.000119 0.490424 -4.030061 -14.801529 129.756927
28 129.756927 0.001550 0.000119 0.481421 -4.031185 -14.685192 129.756927
[spine03]
27 78.614021 0.081739 -4.898997 1.973884 3.793754 17.645969 78.766556
28 78.614021 0.081739 -4.898996 1.968773 3.796391 17.575729 78.766556
[pelvis]
27 169.435242 0.051022 0.000000 -46.809425 -0.804410 -12.134504 169.435257
28 169.435242 0.051022 0.000000 -54.441849 -0.605981 -11.531665 169.435257
[null_rope03_connect]
27 -1.257226 -2.466202 137.391083 179.833466 -12.217916 -83.908325 137.418976
28 -1.257226 -2.466202 137.391083 179.685181 -14.457223 -81.680603 137.418976
[null_rope04_connect]
27 -1.259640 -2.480268 -137.844437 179.833466 -12.217916 -83.908325 137.872513
28 -1.259640 -2.480268 -137.844437 179.685181 -14.457223 -81.680603 137.872513
[Rope3_Seg01]
27 0.000000 0.000000 0.000000 59.520271 -50.642483 -121.899055 0.000000
28 0.000000 0.000000 0.000000 55.755978 -57.402626 -113.555443 0.000000
[Rope3_Seg02]
27 139.999924 -0.000119 0.000060 -4.561260 23.778378 11.329947 139.999924
28 139.999924 -0.000119 0.000060 -6.653857 17.699804 1.130509 139.999924
[Rope3_Seg03]
27 139.999924 -0.000119 0.000119 1.090340 24.844780 11.167297 139.999924
28 139.999924 -0.000119 0.000119 -4.086502 17.226873 -0.202146 139.999924
[Rope3_Seg04]
27 139.999924 0.000119 0.000000 2.732211 14.668406 5.078259 139.999924
28 139.999924 0.000119 0.000000 -1.869307 11.999164 -1.900809 139.999924
[Rope3_Seg05]
27 139.999924 -0.000238 0.000060 -1.451898 3.542874 13.009286 139.999924
28 139.999924 -0.000238 0.000060 0.818039 6.223333 13.215731 139.999924
[Rope3_Seg06]
27 139.999893 -0.000119 -0.000060 -12.132299 -1.647530 21.625538 139.999893
28 139.999893 -0.000119 -0.000060 -5.017883 5.853676 34.331482 139.999893
[Rope3_Seg07]
27 139.999771 0.000060 -0.000119 -12.495429 -2.387406 13.118946 139.999771
28 139.999771 0.000060 -0.000119 -12.348357 2.893868 21.207117 139.999771
[Rope3_Seg08]
27 139.999985 -0.000060 0.000000 -8.762043 -2.330607 6.583526 139.999985
28 139.999985 -0.000060 0.000000 -12.297136 -0.629185 9.831035 139.999985
[Rope3_Seg09]
27 90.185997 -0.000179 -0.000060 89.793228 -1.359877 -0.847183 90.185997
28 90.185997 -0.000179 -0.000060 89.793228 -1.359877 -0.847183 90.185997
[R_rear_hand01]
27 103.366196 -6.073594 -10.757982 -177.714203 24.565960 -73.910950 104.101845
28 103.366196 -6.073594 -10.757982 -177.714203 24.565960 -73.910950 104.101845
[R_rear_hand02]
27 100.509819 12.039542 -7.992327 -12.874829 36.868488 72.167213 101.543350
28 100.509819 12.039542 -7.992327 -12.874829 36.868488 72.167213 101.543350
[R_rear_hand03]
27 101.539970 5.215704 5.435467 71.484581 -71.816628 21.513813 101.819031
28 101.539970 5.215704 5.435467 71.484581 -71.816628 21.513813 101.819031
[Rope4_Seg01]
27 0.000010 0.000017 -0.000066 -87.369148 -20.107712 -132.865448 0.000069
28 0.000010 0.000016 -0.000063 -88.868477 -13.112345 -135.556137 0.000066
[Rope4_Seg02]
27 139.999985 0.000060 0.000119 4.696124 -10.953236 -19.930298 139.999985
28 139.999985 0.000060 0.000119 8.562716 -14.257182 -29.980013 139.999985
[Rope4_Seg03]
27 139.999924 0.000000 -0.000238 0.466287 -18.278034 -32.185863 139.999924
28 139.999924 0.000000 -0.000238 -3.178104 -20.853472 -45.214134 139.999924
[Rope4_Seg04]
27 139.999985 0.000000 0.000119 -8.153023 -9.892726 -18.345278 139.999985
28 139.999985 0.000000 0.000119 -14.012631 -8.671268 -19.295403 139.999985
[Rope4_Seg05]
27 139.999802 -0.000060 -0.000119 -8.937500 -5.014121 -11.075772 139.999802
28 139.999802 -0.000060 -0.000119 -30.684284 -9.241534 -21.627634 139.999802
[Rope4_Seg06]
27 139.999924 0.000000 0.000060 -13.026827 -2.420927 -10.722243 139.999924
28 139.999924 0.000000 0.000060 -34.848656 3.032055 -16.234564 139.999924
[Rope4_Seg07]
27 139.999802 0.000000 0.000000 -8.794243 0.045622 -5.817793 139.999802
28 139.999802 0.000000 0.000000 -14.920670 6.724968 -6.373044 139.999802
[Rope4_Seg08]
27 139.999924 0.000000 0.000119 -3.195364 0.170370 -1.047050 139.999924
28 139.999924 0.000000 0.000119 -7.599019 4.455985 -2.447314 139.999924
[Rope4_Seg09]
27 90.185791 0.000060 0.000060 -135.617828 2.228885 0.850567 90.185791
28 90.185791 0.000060 0.000060 -135.617828 2.228885 0.850567 90.185791
[L_rear_hand01]
27 101.696655 -8.392275 -7.654577 -12.874829 -36.868488 107.832764 102.329041
28 101.696655 -8.392275 -7.654577 -12.874827 -36.868492 107.832764 102.329041
[L_rear_hand02]
27 102.726799 -1.568258 5.773216 71.484581 71.816628 158.486160 102.900848
28 102.726799 -1.568258 5.773216 71.484581 71.816628 158.486160 102.900848
[L_rear_hand03]
27 104.552910 9.721220 -10.420293 -177.714203 -24.565960 -106.089035 105.519653
28 104.552910 9.721220 -10.420293 -177.714203 -24.565960 -106.089035 105.519653
